<!--
  - Copyright [2023] [Don Chakkappan donchakkappan@gmail.com]
  -
  - Licensed under the Apache License, Version 2.0 (the "License");
  - you may not use this file except in compliance with the License.
  - You may obtain a copy of the License at
  -
  -     http://www.apache.org/licenses/LICENSE-2.0
  -
  - Unless required by applicable law or agreed to in writing, software
  - distributed under the License is distributed on an "AS IS" BASIS,
  - WITHOUT WARRANTIES OR CONDITIONS OF ANY KIND, either express or implied.
  - See the License for the specific language governing permissions and
  - limitations under the License.
  -->

<svg viewBox="0 0 48 48" xml:space="preserve" xmlns="http://www.w3.org/2000/svg"><path d="M44.552 31.386 46 29.938l-2.691-2.692-1.427 1.425a9.476 9.476 0 0 0-2.918-1.302v-2.22h-4.78v2.22a9.472 9.472 0 0 0-2.857 1.267l-1.483-1.486-2.692 2.694 1.483 1.484a9.47 9.47 0 0 0-1.27 2.875h-2.216v4.747h2.216a9.432 9.432 0 0 0 1.306 2.934l-1.521 1.521 2.693 2.691 1.544-1.543a9.415 9.415 0 0 0 2.808 1.231V48h4.762v-2.216a9.461 9.461 0 0 0 2.867-1.269L43.309 46 46 43.309l-1.484-1.483a9.54 9.54 0 0 0 1.268-2.862H48v-4.775h-2.218a9.467 9.467 0 0 0-1.23-2.803zm-7.979 9.105a3.918 3.918 0 1 1 .004-7.836 3.918 3.918 0 0 1-.004 7.836zM14.212 33.285v-5.658l-8.484-8.484 8.484-8.485V5L.071 19.143zM38.549 22.938h5.657L48 19.143 33.859 5v5.658l8.485 8.485z" fill="#24610e" class="fill-000000"></path></svg>